<svg xmlns="http://www.w3.org/2000/svg" xmlns:xlink="http://www.w3.org/1999/xlink" width="633" height="170" viewBox="0 0 633 170">
  <defs>
    <filter id="Rectangle_8" x="0" y="0" width="633" height="170" filterUnits="userSpaceOnUse">
      <feOffset dy="10" input="SourceAlpha"/>
      <feGaussianBlur stdDeviation="15" result="blur"/>
      <feFlood flood-color="#7088d2" flood-opacity="0.102"/>
      <feComposite operator="in" in2="blur"/>
      <feComposite in="SourceGraphic"/>
    </filter>
  </defs>
  <g id="Group_3433" data-name="Group 3433" transform="translate(-233 -13933)">
    <g id="Group_50" data-name="Group 50" transform="translate(278 13968.271)">
      <g transform="matrix(1, 0, 0, 1, -45, -35.27)" filter="url(#Rectangle_8)">
        <rect id="Rectangle_8-2" data-name="Rectangle 8" width="543" height="80" transform="translate(45 35)" fill="#403d3d"/>
      </g>
    </g>
    <g id="Group_3385" data-name="Group 3385" transform="translate(-2 -5.541)">
      <g id="Group_3315" data-name="Group 3315" transform="translate(283 13165.782)">
        <text id="Play" transform="translate(34 872.051)" fill="#fff" font-size="16" font-family="SegoeUI, Segoe UI" letter-spacing="0.014em"><tspan x="0" y="0">Play</tspan></text>
        <path id="Icon_awesome-chess-board" data-name="Icon awesome-chess-board" d="M14.844.014H11.132V3.441h3.713ZM0,3.44V6.867H3.713V3.44ZM7.425.014H3.713V3.441H7.425Zm3.713,13.7v3.427H14.85V13.718ZM0,10.292v3.427H3.713V10.292ZM22.266.014H18.554V3.441h3.713Zm7.425,0H25.979V3.441h3.713ZM7.425,13.718H3.713v3.427H7.425ZM29.688,24V20.568H25.976V24Zm0-6.855V13.713H25.976V17.14ZM22.266,27.423h3.712V24H22.266Zm7.425-17.131V6.865H25.979v3.427ZM7.425,27.423h3.713V24H7.425ZM0,27.423H3.713V24H0Zm14.844,0h3.713V24H14.844ZM0,17.144v3.427H3.713V17.144ZM18.556,6.866V3.439H14.843V6.866Zm-3.713,6.855h3.713V10.294H14.843Zm-3.713,6.855V24h3.713V20.576Zm7.425-3.427h3.713V13.721H18.556Zm0-6.852h3.713V6.869H18.556Zm0,10.279V24h3.713V20.575Zm-14.843,0V24H7.425V20.571Zm7.425-13.7V3.439H7.425V6.866Zm11.133,13.7h3.713V17.143H22.27ZM14.845,10.292V6.865H11.133v3.427ZM22.27,3.44V6.867h3.713V3.44Zm-7.425,13.7v3.427h3.713V17.144Zm-3.713-6.852H7.425v3.427h3.713Zm11.133,3.427h3.713V10.292H22.266ZM7.425,6.866H3.713v3.427H7.425Zm0,10.278v3.427h3.713V17.144Z" transform="translate(36.769 829.204)" fill="#fff"/>
      </g>
      <g id="Group_3384" data-name="Group 3384" transform="translate(60 20)">
        <text id="Tournaments" transform="translate(375 14017)" fill="#fff" font-size="16" font-family="SegoeUI, Segoe UI" letter-spacing="0.014em"><tspan x="0" y="0">Tournaments</tspan></text>
        <path id="Icon_material-live-tv" data-name="Icon material-live-tv" d="M29.327,9.7H18.766l4.577-5.511L22.37,3,16.8,9.7,11.239,3l-.988,1.189L14.843,9.7H4.283A3.1,3.1,0,0,0,1.5,13.051v20.1A3.116,3.116,0,0,0,4.283,36.5H29.327a3.116,3.116,0,0,0,2.783-3.35v-20.1A3.1,3.1,0,0,0,29.327,9.7Zm0,23.453H4.283v-20.1H29.327ZM12.631,16.4V29.8l9.739-6.7Z" transform="translate(401.923 13966.541)" fill="#fff"/>
      </g>
      <g id="Group_3317" data-name="Group 3317" transform="translate(403 13165)">
        <text id="Learn_" data-name="Learn
" transform="translate(216 872)" fill="#fff" font-size="16" font-family="SegoeUI, Segoe UI" letter-spacing="0.014em"><tspan x="0" y="0">Learn</tspan><tspan font-family="TT Norms" font-weight="500"><tspan x="0" y="17"></tspan></tspan></text>
        <g id="Group_5" data-name="Group 5" transform="translate(220.977 829.218)">
          <g id="Rectangle_9" data-name="Rectangle 9" transform="translate(12.442 0.071)" fill="none" stroke="#fff" stroke-width="1">
            <rect width="24.883" height="17.738" stroke="none"/>
            <rect x="0.5" y="0.5" width="23.883" height="16.738" fill="none"/>
          </g>
          <path id="Icon_metro-user" data-name="Icon metro-user" d="M18.936,25.108V23.346c1.988-1.327,3.609-4.635,3.609-7.943,0-5.312,0-9.618-5.414-9.618S11.717,10.09,11.717,15.4c0,3.308,1.621,6.616,3.609,7.943v1.763C9.2,25.7,4.5,29.264,4.5,33.571H29.764c0-4.307-4.706-7.87-10.828-8.463Z" transform="translate(-4.499 -5.784)" fill="#fff" stroke="#fff" stroke-width="1"/>
        </g>
      </g>
      <g id="Group_3318" data-name="Group 3318" transform="translate(425 13160)">
        <g id="Group_3333" data-name="Group 3333" transform="translate(322 831)">
          <text id="Read" transform="translate(0 46.518)" fill="#fff" font-size="16" font-family="SegoeUI, Segoe UI" letter-spacing="0.014em"><tspan x="0" y="0">Read</tspan></text>
          <path id="Icon_awesome-book-open" data-name="Icon awesome-book-open" d="M34.072,2.253c-3.444.2-10.288.924-14.513,3.558a.988.988,0,0,0-.457.843v23.29a1,1,0,0,0,1.463.863c4.347-2.229,10.634-2.837,13.743-3a1.98,1.98,0,0,0,1.886-1.962V4.218a1.985,1.985,0,0,0-2.122-1.965ZM16.635,5.811C12.411,3.177,5.566,2.453,2.123,2.253A1.986,1.986,0,0,0,0,4.218V25.843a1.979,1.979,0,0,0,1.886,1.962c3.11.166,9.4.775,13.747,3.005a.992.992,0,0,0,1.458-.862V6.643A.968.968,0,0,0,16.635,5.811Z" transform="translate(1.341 -2.25)" fill="none" stroke="#fff" stroke-width="1"/>
        </g>
      </g>
    </g>
  </g>
</svg>
