<svg xmlns="http://www.w3.org/2000/svg" viewBox="0 0 1920 5232.2"><defs><style>.cls-1,.cls-2{fill:none;}.cls-2{stroke:#cc3939;stroke-linecap:round;stroke-linejoin:round;stroke-width:5px;stroke-dasharray:12;opacity:0.16;isolation:isolate;}.cls-3{fill:#cc3939;}.cls-4{fill:#ded2d2;}.cls-5{fill:#fff;}.cls-6{fill:#f6f6f6;}.cls-7{fill:#34558b;}</style></defs><title>homepagebg1</title><g id="Layer_2" data-name="Layer 2"><g id="Layer_1-2" data-name="Layer 1"><rect class="cls-1" width="1920" height="5232.2"/><path id="Path_1179" data-name="Path 1179" class="cls-2" d="M1502.94,586.66S1080.23,4644.71,405.11,4468.42"/><g id="scribbles-scribbles-4"><path id="Path_1" data-name="Path 1" class="cls-3" d="M1561.68,511.19a16.57,16.57,0,0,0-3,.79c-3.35,1.57-6.34.35-8.88-1.13a17.26,17.26,0,0,1-5.12-3.84c-3.21-4-3.79-8.37-2.17-13.39a24.14,24.14,0,0,1,3-6.66c1-1.37,2.07-3,3.47-3.65,5.44-2.67,11.05-3.8,16.61-1.21,1.53.71,3,1.58,4.45,2.41a1.18,1.18,0,0,1,.56.6c1.25,4.46,2.2,9,.67,13.71a10.76,10.76,0,0,1-3.44,5.57c-2.27,1.7-3.67,4.56-6.72,5.23Zm4.34-15.24c-1.43-1.54-2.44-3.11-3.88-4.06-2.67-1.75-10.44-.22-12.77,2.28-.36.38-.8,1-.73,1.41.37,1.79.91,3.53,1.38,5.29,1.93-.49,2.51,3,4.91,1.33,1-.69,2.18,1.71,3.26-.24,3.43-.93,5-4.09,7.84-6Z"/><path id="Path_2" data-name="Path 2" class="cls-3" d="M1683.41,565.07c.67,1.19.77,2.16-.78,3a4.16,4.16,0,0,0-.89-.34c-3.37-.56-5.88-2.79-8.71-4.32a5.48,5.48,0,0,1-2.48-3.92c-.3-4.46-1.13-9,1.3-13.46,2-3.72,6.13-6.83,10.16-7.31,2.34-.28,4.54.33,6.93.06,1.31,2,3.73,3.11,4.22,5.84.23,1.27,1.52,6.56,1.61,7.74.22,2.75-1,5.08-2.35,7.41a2.93,2.93,0,0,1-1,1.3C1688.62,562.16,1686.69,565,1683.41,565.07Z"/><path id="Path_3" data-name="Path 3" class="cls-3" d="M1471.62,468.22l-.74-1.77,3.75-1.86,1.73,1.45.29-1.36c2.33-.23,4.48,0,6.11,1.92a5.33,5.33,0,0,0,1.63,1.08,6.37,6.37,0,0,1,3.4,3.78c.19.62.71,1.64,1,1.6,2.65-.32,1.5,2.52,2.82,3.38.56.37-.34,2,.57,3.08.48.56.08,1.83.28,2.72s-.61,2.31.48,3.16c-1.17,2-.51,4.16-1.13,6.17a15.94,15.94,0,0,1-9.82,9.72c-3.69,1.14-6.59-.48-6.87-4.2-.13-1.81-.2-3.21-2.3-3.45.3-1-.32-1.16-1.08-1a2.14,2.14,0,0,1-2.42-1.26c-1.72-2.93-3.28-6.07-3.55-9.46-.23-3,.68-6.13,1.08-9.21C1468.56,471.4,1468.29,468.17,1471.62,468.22Zm15.6,21a19,19,0,0,0-5.47-13.31,7.13,7.13,0,0,0-5.44-2.17c-1.25,0-2.49,0-3.77,0a7.37,7.37,0,0,1-.45,1.9c-1.23,2-1.48,3.88,0,5.8.69.87.84,2.16,1.34,3.21.32.69.91,1.88,1.24,1.82,1.87-.36.39,1.76,2.19,1.9l4.69.17.18,3.35c2.81,1,3.63-1.6,5.46-2.65Z"/><path id="Path_4" data-name="Path 4" class="cls-3" d="M1524.91,376.79c-1.37-.44-3.18-.69-3.93-2.81l1.37-.21c-.39-.75-1.26-1.75-1-2.09,1.53-2.36.12-5,1.38-7.38,2.13-4,4.38-7.85,9.09-9.3.52-.16.77-.06,1-.78.76-2,2.38-2.31,4.24-1.77,1.3.37,1.37-.57,1.42-1.53l7.25-.86,3.14,3.37c-.13,1.29-.28,2.85-.45,4.42-.16,1.41.18,2.75-.2,4.23a12.25,12.25,0,0,1-5.73,7.54c-2.18,1.36-4.72,2.13-7,3.42-1.46.84-2.69,1.47-4.4.95a3.36,3.36,0,0,0-2.57,1c-.91.89-1.84.61-2.78.77C1525.48,375.8,1525.24,376.38,1524.91,376.79Z"/><path id="Path_5" data-name="Path 5" class="cls-3" d="M1410.43,436.08l3.2-.58c0,.53-.21,1.16,0,1.32,2.38,1.86.82,4.66,1.3,7a1.33,1.33,0,0,1-.66,1c-2.81-.24-2.31,2.35-3.32,3.67l1.27.08c0,.15,0,.36,0,.42-1.49,1.25-2.35,3.42-4.84,3.23-.56,0-1.2.65-1.83.82-1.64.44-3.24,1.64-4.92,1.22s-2.77,1.34-4.62,1c-3.14-.53-6.54-2.75-7.7-5.71-1.68-4.3-1-8.67,1-12.71a21.44,21.44,0,0,1,7.1-8.4c1.82-1.22,4.12-.92,6.15-.65.61.08,1,1.36,1.6,2.31a4.4,4.4,0,0,0,.8-1.26c.23-.82.61-1.42,1.41-1s.56,1.1-.14,1.68c-.12.1,0,.5.07,1.06l3,.28-1,1.66,5,.21Zm-16.7,5a2.27,2.27,0,0,1-.07.85c-.88,1.76.59,2.9,1.1,4.17.27.68,2,.74,3.05,1a11.14,11.14,0,0,0,3.3-.57c.91-.25,2.22-.82,2.68-.45,1,.84,1.42.11,2.12-.37a6.63,6.63,0,0,1,1.62-.61c.32-4.31-2.54-5.42-5.69-6.61-3.44-1.3-5.82.13-8.11,2.55Z"/><path id="Path_6" data-name="Path 6" class="cls-3" d="M1588,559.13l0-1.85c-.6.19-1.46.72-1.75.51a3.85,3.85,0,0,1-1.71-2.17,26,26,0,0,1-.09-7.47,20.23,20.23,0,0,1,2.86-6.69,6.76,6.76,0,0,1,3.73-2.67c3.5-1.17,6.74-2.1,10.36-1.11,1.6.44,2.71,1.57,4.27,2a10.31,10.31,0,0,1,1.77.79l-.57,1.65c.85-.14,1,.15,1.11,1,.19,1.6.12,5.12.18,6.57.17,4.66-4,5.77-6.66,8-.67.57-2.16.16-3.35.21-.76-3.23.15-6.11,1.58-8.83-2.2-1.81-4.56-.24-6.76-.31-.49,0-1.05.83-2.14,1.75l4.39,0c1.33,1.66-.83,3.33.27,4.75a26.24,26.24,0,0,1-3.86,3.59C1590.76,559.44,1589.41,559.08,1588,559.13Z"/><path id="Path_7" data-name="Path 7" class="cls-3" d="M1394.13,521l-4.56,0-3.54-3.8c-2.13,1.25-.28,1.81.23,2.81-.31.12-.6.36-.86.34-1.79-.14-.79,1.61-1.82,2.31-2.24.88-4.23-.65-6.38-1.18a2.77,2.77,0,0,1-1.42-1.71c-1.27-3.46.26-6.57,1.71-9.8.94-2.08,3.31-3.17,3.61-5.55,2.17-1.19,4.25-2.8,6.55-3.46a7.53,7.53,0,0,1,6.8,1.81c1,.85,2.92.57,3,2.21.09,1.39,1.48,2.16,1.13,3.83-.25,1.19.75,2.37-.24,3.86-.49.74.46,2-.06,3.41C1397.44,518.37,1395.33,519.2,1394.13,521Z"/><path id="Path_8" data-name="Path 8" class="cls-3" d="M1510.9,437.47l-1.22,3.15c-2.27,1.47-3.68-1.12-5.82-.39s-3.37-1.9-5.88-1.6l.28,2.12c-.14,0-.45.15-.58,0-2.32-1.69-2.55-4.29-2.53-6.94,0-2.2.91-4.29,1.43-6.42.29-1.2,1.79-1,1.57-2.18a2.47,2.47,0,0,1,1.24-2.55c1-.68,1.23-2.36,1.82-2.64,1.39-.67,2.54-1.7,3.91-2.34a17.27,17.27,0,0,1,8-1.81,5,5,0,0,1,4,2.68c2.63,4.13,2.7,4.13,2.33,7.44a14,14,0,0,1-2.91,7.17c-1,1.26-1.39,2.85-3.24,3.16C1513.22,438.37,1511.81,436.8,1510.9,437.47Zm-4.7-.85c1.26-1.89,2.3-3.49,3.39-5.06.24-.35.66-.88,1-.87,2.58.11,2.51-2.16,3.38-3.58-2.16-2.4-2.26-2.19-5.22-1.69-3.52.59-5.66,3.05-8,5.3a2.85,2.85,0,0,0-.57,1.92c0,1.27,2,1.51,1.6,3.1l1.64-.33C1503.64,437.39,1505.28,436.43,1506.2,436.61Z"/><path id="Path_9" data-name="Path 9" class="cls-3" d="M1499.18,602c-.93-4.35-.14-6.29,3.83-7.13,2.05-.44,2.62-2.79,4.73-2.68.31,0,.78-1.23,1.16-1.89,1.05-1.84.76-2.41-1.07-3.53-3.5-2.13-6.95-1.48-10.54.57.68,1.38,1.38,2.75,2,4.15.8,1.7-1.21,2.69-1.43,3.89l-3.94,0c-2.85-.84-1.76-4-2.86-6.18,1-3.25,1.21-6.73,4.25-9.22,3.84-3.15,8.23-4.5,13.16-2.13,4.11,2,5.9,4.92,5.87,9.93,0,3.06-.37,5.86-3,8.46C1507.82,599.68,1504,602,1499.18,602Z"/><path id="Path_10" data-name="Path 10" class="cls-3" d="M1636.68,481.78c3.31,1.88,2.85,5.21,3.38,8.06.49,2.61-1.37,4.74-2.6,6.8-1.14,1.9-3.61,2.52-5.62,3.39a43,43,0,0,1-5.31,1.59l.58,1.44-2.76.06,1.56,2.49c-1-.16-2,0-2.34-.41-.92-1.13-2.27-1.81-2.67-3.53-1-4.37.4-8.4,2.38-12.2C1626.07,484.13,1630.58,481.39,1636.68,481.78Z"/><path id="Path_11" data-name="Path 11" class="cls-3" d="M1620.4,433.34l2.55-.82a13.31,13.31,0,0,1,5.58-9.92,4.83,4.83,0,0,1,2.57-1.33c2.2-.24,4.22-1.87,6.67-.62,1.06.54,2.14,1.21,2.35,2,.59,2.32,1.59,4.68.8,7.19a9.29,9.29,0,0,1-1.86,3.63c-3.31,3.7-7.6,5.12-12.09,6.08a5.64,5.64,0,0,1-3.2-.44c-1.28-.5-2.15-.73-2.27-2.3A16.1,16.1,0,0,0,1620.4,433.34Z"/><path id="Path_12" data-name="Path 12" class="cls-3" d="M1442.75,392.43c.14,2.13-1,4.51.84,6.33-.43,1.28-.55,2.8-1.35,3.81-1.93,2.44-4.4,3.82-7.54,2.66a4.76,4.76,0,0,0-1.41,0l.43,1-3.68,0-.14.92a3.8,3.8,0,0,1-.89-.74c-.92-1.44-3.13-2-2.77-4.32a17.85,17.85,0,0,1,3.34-8.27c2.54-3.35,8.46-3.73,11.49-2.64C1441.85,391.42,1441.36,393.12,1442.75,392.43Z"/><path id="Path_13" data-name="Path 13" class="cls-3" d="M1558.15,436.68a21.43,21.43,0,0,0,1.76-1.65c1.91-2.38,4.31-1.37,6.41-1.08s1.73,2.77,2.43,4.22.38,3.22.39,4.86c0,2.77-2.74,6.37-5.58,7.26-.65.2-1.19,1.14-2.22.23-.61-.54-2.14-.16-3.25,0-2.89.36-4.11-.56-3.85-3.3.17-1.79,0-3.56.76-5.41C1555.85,439.64,1556.47,437.54,1558.15,436.68Z"/><path id="Path_14" data-name="Path 14" class="cls-3" d="M1515.14,539.22c.28-2.74.21-5.43,1.69-8.11,1.83-3.32,3.71-4.19,7.22-3.52,4,.77,5.19,2.66,4.87,6.88,0,.57-.08,1.15-.11,1.6-.82,1.41-2.88,1.84-2.7,3.82-2.42,3.44-6.66,3.82-9.54.86C1516.08,540.26,1515.62,539.74,1515.14,539.22Z"/><path id="Path_15" data-name="Path 15" class="cls-3" d="M1455.09,541.95l-2.16-.28c0,.72,0,1.45,0,2.15l-1.3.06,1.44,2.5c-3.29,1.44-5.46-.52-7.83-1.44-.46-.18-.66-1.31-.7-2a17.91,17.91,0,0,1,1.76-8.49c.17-.36.52-1,.71-.94,2.66.22,3.42-4.06,6.07-3,.52.21.28,2,1.14,3.06l.3-2.65c1.22.25,2.42.45,3.57.78a2.14,2.14,0,0,1,.85.89c.15.2.31.66.25.7-2,1.41,1.17,2.17.22,3.49-.47.65-.63,1.55-1.15,2.14C1457.33,540,1456.18,540.93,1455.09,541.95Z"/><path id="Path_16" data-name="Path 16" class="cls-3" d="M1403.31,582.1l-1.43,1.33-2.55-2.73c.92-3.44,1.25-7.29,5.2-9.72l1.75,1.65-2.69,2.5c.56.4.87.82,1.17.79.5,0,1-.45,1.5-.54.95-.17,1,.16.61,1.49a25,25,0,0,0-.51,2.91l-2.12-.81c.53,1.92.53,1.88-1.64,1.91-.37,0-.78.58-1.46,1.12Z"/></g><g id="Group_5" data-name="Group 5"><path id="Path_43" data-name="Path 43" class="cls-4" d="M102,4875.48c22.64,0,43.4-1.14,43.4,33.66,0,11.16-17.39,9.87-22.89,17.5-3,4.2,22.51,34,19.52,38.37-7.21,10.62-29,18-40,18-1.38,0-1.5,3.74-3.05,3.54-18.87-2.4-23.56-27.24-23.56-59.91C75.39,4891.84,79.36,4875.48,102,4875.48Z"/><path id="Path_44" data-name="Path 44" class="cls-5" d="M100.19,4895.8l20.22-9.5,13.17-3.06-2.76,26-4.9,15.32,3.37,26.35,1.53,10.72s-11,2.76-11.95,2.45-12.25-8-12.25-8l-9.19-53.92Z"/><g id="Group_1" data-name="Group 1"><path id="Path_41" data-name="Path 41" class="cls-4" d="M302.22,5037.59c43.08,0,23.78,11.44,23.78,34.91s-34.92,16.92-78,16.92c-2.5,0-32.62.14-35.3,0-39.36-2-42.7,5.19-42.7-16.92C170,5049,259.14,5037.59,302.22,5037.59Z"/><path id="Path_42" data-name="Path 42" class="cls-6" d="M214.1,5032.25l31.54,2.18s4.17,6.16,6.53,7.8,32.45,13.42,32.45,13.42,9.06,6.16,9.06,6.89-4,7.43-4.71,8-8.16,3.26-9.25,3.26-41.15-6-41.15-6l-28.1-12.15v-19.76Z"/><g id="Character_selfie" data-name="Character selfie"><path id="Accent" class="cls-7" d="M289.14,4760.88h.17c1.9.35,5.09,5.87,6.47,7.42,4.23,5.09,8.46,10.09,12.68,15.18,1.73,2,4.14,4.14,5.35,6.47.95,1.81,1.21,4.31,1.81,6.21,6.9,24,13.55,48.14,18.55,72.56,1,5.26,2.07,10.53,2.67,15.88.26,2.67,1,6.56-.09,9.06-1.29,2.85-5.43,4.05-8.2,5a116.15,116.15,0,0,1-16.22,3.71c-13.2,2.24-26.49,3.54-39.77,4.57-4.05.35-8.28.35-12.25.86-1.9.26-1.38-.26-2,1-.86,1.81-.26,5.52-.35,7.51-.26,4.66-.43,9.23-.69,13.89h0L255.4,4968c-.69,12.77-1.29,25.54-2,38.31l-.78,14.49c-.17,2.59.26,6-.43,8.46-.52,1.9.35,1.29-2,1.47-5.35.26-11-.43-16.31-.6-6.13-.26-12.25-.43-18.29-.69-1.73-.09-3.71.43-4.4-.78-.86-1.55-.17-5.69-.26-7.42l-.52-14.24c-.43-13-.95-26-1.38-39-.6-17.77-1.29-35.46-1.9-53.23l-20.36,4.14c-10,2-20.1,4.05-30.11,6-4.57.95-10.09,3-14.84,2.33s-6.64-2.67-6.9-7.16c-.26-4.83-.17-9.66-.09-14.41.09-7.85.35-15.7.6-23.55l40.21-3.62c7.16-.6,14.24-1.29,21.4-1.9,1.64-.17,5.61.17,6.3-1,1.12-1.9-.09-8.11-.17-10.27h0l-.35-20.27h0l-1.21-74.63,9.66.26c14,.43,28,.95,41.93.52,7-.17,13.63-2.07,20.27-4.31,3.54-1.21,7-2.5,10.44-3.8,1.12-.43,4.31-2.42,5.43-2.24Zm-18.72,69.45-7.16,34.86,24.42-1.64Z"/><g id="Ink"><path id="ink-shape" d="M474.2,4547.43c-.52,3.88-.17,8.11-4.49,9.14-4.05.95-8.54.69-12.6,1-4.66.35-9.32.86-13.89,1.38-5.87.6-5-1.64-6.3-6.64-1.21-4.57-3-9.15-4.57-13.55a40.1,40.1,0,0,0-2.59-6c-.86-1.73-.43-4.14-1.47-5.61-3.28-5.09-19.24,8.8-20.71,6,2.67-2.07,7.33-4.49,8.2-8,.95-4.23-1.73-5.52-5.09-4a104.5,104.5,0,0,1-26.92,8.2c2.93-2,29.42-17.43,20.53-22-2-1-4.66.95-6.47,1.64a52.74,52.74,0,0,1-8.89,2.67l-9.49,2.33c-2.24.52-6.21,2.33-8.37,1.9s1.73-1.81,2.33-2.16c2.76-1.38,5.52-2.93,8.28-4.4a47.33,47.33,0,0,0,12.94-10c2.76-3.19,7.33-10.09,5.43-14.41-1.12-2.5-3.54-4.83-5-7.25-1.64-2.76-3-5.78-4.49-8.71,2.42,1,5.18,1.38,7.68,2.33s5,1.73,7.59,2.5c5.18,1.47,10.35,1.73,15.53,2.85,5.87,1.29,11.91,2.76,17.86,3.54a33.42,33.42,0,0,1,14.23,4.92A43.4,43.4,0,0,1,472,4509.39a70.05,70.05,0,0,1,2.5,18.46c.09,6.39.6,13.11-.26,19.58M322.53,4827.15c.95,3,4.31,8.89-.17,9.66-6.3,1-18,3.36-17.26,12.25.86,10.44,14.24,10.44,21.66,10.87,4.23.26,4.23,3.62,4.83,7.42.26,1.73,1.12,4-.35,5.18-1.29,1.12-5.18,1.12-6.82,1.47l-14.49,3.11c-5.52,1.21-8.37-.43-13.55-2-1.9-.52-3.8-.35-4-2.42-.09-1.29,1.21-3.36,1.64-4.66a70.14,70.14,0,0,0,3.54-15.7c.69-7.77-.17-19.5-9.75-21.05-4.57-.69-5.43-.95-7.51-5.26-2.24-4.66-5.78-8.89-4.92-14.24.6-3.88-.43-11.22,2.07-14.41,1.12-1.47,3.37-2.33,4.92-3.45,1.9-1.38,3.8-2.85,5.61-4.4,1.55-1.29,3.37-3.88,5.09-4.83,2.07-1.12,2.16-.35,3.71,1.47,2.07,2.67,5.61,10.61,9.66,9.84m10.18,17.34c-1.21,2.5-4.14,4.83-6,7a78.16,78.16,0,0,1-5.69,6.3c-2.24,2.07-10.35,7.25-8.54.35,1.38-5.35,6.56-9.66,11.13-12.34.86-.6,11.13-5.61,9.06-1.29m8.8,25.45c.78,3.54,1.21,7.25,1.9,10.87.35,1.81,2.24,6.3,1.47,8-1.29,3-13.37-.52-15.87-1.55-6-2.42-8.63-8.8-3.19-13.29,2.16-1.73,14.93-7.68,15.7-4.05m7.94,42.88c.69,3.45,2.59,6.56-.6,9.14-2.67,2.16-7.08,3.62-10.44,4.4-4.49,1-6-1.47-8.37-4.74-2.59-3.54-5.35-6.9-8.11-10.18l26.75-6a35.31,35.31,0,0,0,.78,7.33M312,4897.55c-4.66-.26-9.66,1.12-14.41,1.55-5.87.43-11.73,1.12-17.69,1.55,1.55-4.83,4.23-9.14,6.38-13.72s3.62-5.09,8.54-5.43c4.57-.35,7.76-1.9,11.13,2s6.64,8.37,9.84,12.6c-1.12.69-2.42,1.55-3.8,1.47m-33.3.95c-1.12.86-4.66-1.55-5.87-2-2.33-.86-2.85-1.21-4.05-3.45-1-2-2.68-4.14-3-6.38-.43-2.93.86-6.82,1.38-9.66,1.29,3,5.35,3.36,8.2,3.88,2.07.35,8.37-.26,9.92,1.29,1.73,1.64-1.47,6.3-2.33,8-1,2-2.24,6.9-4.23,8.28m-2.24,2.42c-1.38.26-5.35,1.64-5.26-.95.09-2.85,5.52.26,5.26.95m-7-.17c-.26,2.42-5.43,2.24-5.61.09-.17-3.62,6-4,5.61-.09m-6-65.48c-1.29,3.8-9.49,5.18-12.6,6.3-2.85,1-11.39,6-14.32,4.23,9.92-6.82,20.19-13.55,28.56-22.26a13.16,13.16,0,0,1-.78,6c-.6,1.81-.26,4.05-.86,5.69m-2.5,13.89c-1.47,9.32-2.85,18.72-4.74,28-3.71-1.12-6.73-3.45-10.61-4.23a30.18,30.18,0,0,0-10.79-.17c-7.59,1.12-14.41,4.92-21.05,8.54-.6-6.39-1.9-13.2-1.73-19.67.09-5.35,9.23-6.9,13.37-9.14,2.5-1.29,4.74-3.19,7.59-3.71s5.78-.43,8.63-1.38c6.82-2.07,13.29-5.43,20-7.94.52,3.36-.17,6.64-.69,9.75m-6.38,39.43c-.35,2.16.09,5.87-1.55,7.51s-4.74,1.55-6.73,2c-6.13,1.29-12.16,2.5-18.29,3.8-2.76.6-5.43,1.12-8.2,1.64-1.29.26-4.57,1.47-5.69.43s-.26-4.14-.17-5.43c.09-2.67.26-5.26.09-7.94-.35-5.09,0-7,4.66-9.66a51.4,51.4,0,0,1,15.88-5.69,29.48,29.48,0,0,1,16.57,1.73c1.55.6,3.8,1.38,4.49,3,.95,2.24-.69,6.39-1,8.63m-6.9,81.79c-2.24,1.38-7.07,1.12-9.66,1.47a49.83,49.83,0,0,1-12.42-.43c-3.11-.52-7.76-1.12-10.09-3.36-3.37-3.11.52-3.28,3.11-3a153.46,153.46,0,0,0,22.69-.34c1.47-.09,5.43-1.38,6.82-.78,1.73.69,1.12,5.43-.43,6.47m-4.23,50c-14-1.38-22.17-12.94-27.18-24.85-2.76-6.39-1.73-13-2-19.76-.09-1.21-.86-4.31.43-5.18s6,1.81,7.33,2.16a44.21,44.21,0,0,0,20.71.17c2.93-.69,4.49-2,5.43.86.78,2.33-.43,6.56-.6,9-.35,4.14.35,38-4.14,37.62m-28,0c-.09-2.07-1.12-22.6-.09-22.6,2.93,6.39,6,12.08,11.39,16.74a30.94,30.94,0,0,0,9.32,5.87c1.29.52,8.63.86,9,2.42.6,2.85-4.4,1.64-5.87,1.47-1.21-.17-2.24-.69-3.45-.86-2.24-.43-4.31.17-6.56.17-3.37.09-6.73-.26-10.09,0-3.11.26-3.54-.09-3.62-3.19m2.07-92.14c12-3.88,22,3.45,28.38,13.11,3.62,5.52,4.4,9.32,3.8,15.79-.26,2.33.17,3.88-2,4.83s-6.9.26-9.23.34a187.11,187.11,0,0,1-19.67.34c-4.31-.26-4.92-.95-4.83-5.09.09-5-.35-9.92-.6-14.93-.26-5.52-2.16-12.34,4.14-14.41m-3.88-7.16c0-3.71-.17-7.42,0-11.13s1.81-3.45,5.18-4.05c7.42-1.38,14.84-2.85,22.17-4.66,2.93-.69,6.21-2.07,9.23-2.07,3.19,0,3,1.64,2.76,4.4-.43,6.21-1.64,12.34-2,18.55-.35,6.64-.6,13.46-.52,20.1,0,2.24.52,3.88-1.38,1.81s-2.85-5.43-4.57-7.85A27.87,27.87,0,0,0,230,4925.76a21.06,21.06,0,0,0-9.84-.43c-1,.17-6,2.59-6.56,2.07-.43-.35.09-6.21.09-6.3m43.83,127.17a91.88,91.88,0,0,0,15.36,8.54c3,1.38,14.84,4.14,15.27,7.16.17,1.64-1.73,3.45-3,3.62-1.64.26-4.31-.86-6-1-6-.78-12.08-.78-18-2.42-11.82-3.36-24.07-4.31-36-7.25-2.85-.69-5.69-1.38-8.54-2-2.68-.6-3.88-.52-4.05-3.36-.17-6.38,1.64-12.85,1.64-19.33,9.66,1.12,19.33,1.12,29,2,4.14.34,4.05,1.21,5.87,4.83a28.22,28.22,0,0,0,8.54,9.23m-47-206.46c-.09-2.33-.26-4.74-.43-7.08-.17-1.55-1.55-6-.78-7.25.95-1.47,1.9-.6,3.62-.6a11.91,11.91,0,0,0,6-2.16,28.1,28.1,0,0,0,8.45-8.72c2.07-3.11,1.64-7.25,1.64-11-.09-9.49.6-18.72.09-28.3-.26-4.4,3.45-1.73,6.47-1.12,4.92.95,10.27.26,15.27.26-.17,1.21-10.44,4.05-12.08,5.18a13.53,13.53,0,0,0-6.3,12.51c.78,10.35,12.16,12.08,20.53,12.08-6.9,6.13-13.72,11.91-19.15,19.5-4,5.52-11,16.48-4.49,22.69-5.78,3.28-11.56,6.9-18,8.54-.26-4.83-.6-9.75-.86-14.58m-2.59-188.95c2.33,1.55,3.37-.6,5.18-1.73,2.5-1.55,3.37-1.38,3.71-4.92.6-6.47-2.16-12.34-5.52-17.6-1.55-2.42-3.11-5.26-5.26-7.16-2-1.73-4.05-1.12-5.87-2.93-.69-.69-.6-1.64-1.81-1.64-.78,0-2.68,2.5-3.37,3-2.07,1.73-4.57,3-7.33,1.64-4-2.07-2.68-9.49.35-11.91,2.33-1.9,5.18-1.55,7.85-1.9,2-.26,2.42-.17,1.64-2.42-.6-1.64-1.9-2.85-2.59-4.49-1.29-3-1-6.73-1.55-9.92-.52-2.85-1.64-6-1.64-8.89.09-3.71,1.29-4.66,4.49-5.69s5.69-3.19,8.37-5.09c3-2.07,6.3-3.54,9.4-5.43,2.07-1.29,3.45-4,5.78-2.76,2.76,1.47,5.61,5.69,7.94,7.94-3.37,2.16-4.23,3.11-3.71,7.33.43,3.88,1.21,7.33,4.23,10,1.12,1,3.28,1.9,4.14,3.11,1,1.38.35.17.26,1.73-.09.86-.78,1.38-.6,2.42.69,4.4,5.69,1.81,7.76.26,7.33-5.43-6.38-9.75-9.66-11.65-2.24-1.38-3.37-5.69.17-4.57,2.42.78,7.76,7.25,8.28,1.38,5.87,3.45,9.58,10.7,14.49,15.36,3.54,3.37,8.37,7,5.52,12.34-3.62,6.73-10.79,9.84-17.34,12.77-6.3,2.85-5,10.87-1.64,15.7a17,17,0,0,0,7.59,5.87c3.19,1.38,3.8,3,4.49,6.3.78,3.62-.09,5.09-3.19,7a83,83,0,0,1-9.49,5c-7.07,3.11-14.41,3.28-21.91,4.31-2.68.35-5.18,1.12-6.56-1.47-1.73-2.93-1.9-8-2.59-11.3m-1.12-14.06c-1.81-.95-6,2.16-8.28,2.33-3.62.26-6,.17-9.23,2.07a76.43,76.43,0,0,0-16,13.37c-5.52,5.69-11,11.48-16.39,17.17-2.5,2.59-5,5.18-7.51,7.68-2,2-3.88,4.83-6.39,6.3.09-1.73,1.21-2.93,1.55-4.49.26-.95-.17-1.73,0-2.59.09-.26.78-1.29.95-1.64l1-2.59c.35-.86.26-1.73.69-2.59s1.38-1.47,1.73-2.42c1-2.59-.69-3.8-3.36-3.71,1-5.18,1.47-7.77,6.9-9.58a79.63,79.63,0,0,0,15-6.47c4.23-2.42,7.76-6,11.82-8.63,3.62-2.42,8.2-5,8.2-9.92,2.07,1.38,4,2.59,6.38,1.21,2-1.21,2.24-2.16,4.57-2.33a7.47,7.47,0,0,1,4.74.6c2,.95,2.24,1.64,3.37-1.21,1.29,1.12,4.66,5.69,4.49,7.51-.09,1-.17,1.47-1.47,1.73-1.64.17-1.55-1.12-2.85-1.81m-8.28,271.95c-.86,1.29-4.49,1-5.87,1-4.31-.09-5.78-3.62-7.68-7.08-2.93-5.43-7.33-16.82-2.5-22.52,3.8-4.49,11.3,1.21,13.89,4.57,2.24,2.93,1.55,7.42,1.81,11,.17,2.93,2.07,10.35.35,13m-11.65,1.9c-1.73,1.73-7.25,1.38-9.49,1.73a96.12,96.12,0,0,0-12,2.67c-2.93.86-5.78,3.28-6.56-.78-.6-3.45-.35-7.51-.26-11,.09-3.71.43-7.42.78-11.13.26-2.5-.35-7.08,1.73-9.06,1.73-1.64,6-1.81,8.37-2.33,3.8-.86,7.68-2.07,11.56-1.64a25.74,25.74,0,0,0,0,18.81c.6,1.73,6.9,11.65,5.87,12.68m-28.73-24.59c-.95,9.32-1.9,18.64-1,28,.09.52.69,3.11.43,3.54s-2.68.6-3.19.78c-2.16.52-4.31,1-6.39,1.47-4.23.86-4.75-1.81-5.52-5.69-1.73-8.28,1.64-17.34,3.71-25.37,1-3.88,1.73-4.31,5.61-4.66,2.59-.17,6.73-2.07,6.39,1.9m-16.22,34.68c-1.64,1.47-3.19-5.43-3.36-6.13-.52-2.76-.26-5.61-.26-8.45,0-4.4-.35-8.8-.35-13.2,0-2.42-1.81-7.25,1-8.45a10.09,10.09,0,0,1,4.83.26c1.55,1,.95,1.64.52,3.45-1,4-1.9,7.85-2.76,11.91-.86,3.88-1.73,7.68-1.29,11.65.09,1.29,2.68,8.11,1.64,9m51.08-43.31c3.88-1.12,4.14,1.9,4.14,4.74-.6-.52-6.21-4.23-4.14-4.74m-52.2-210.09c-.95,1.55-7,2-8.71,2.42-3.36.78-6.82,1.64-10.18,2.5-6.39,1.55-12.6,3.37-19.07,4.23,3.62-5.69,4.66-10.7,4.06-17.86a201.23,201.23,0,0,0-4-26.83c-2.07-8.71-4.4-17.43-6.73-26.06-1.12-4.23-2.33-8.46-3.8-12.6-1.21-3.28-3.11-7.51-1-10.87,5.18,3.8,9.32,7.85,12.25,13.55,3.19,6.13,5.87,12.42,9.58,18.29,1.64,2.68,3.62,5.09,5.43,7.76,1,1.55,1.81,3.8,3.19,5.09,1.55,1.47,3.19,2.24,4.14-.35.95-2.76-2.07-8.11-3-10.61-2.16-6.13-4.31-12.34-6-18.64-1.38-5.09-3.62-11.3-2.85-16.65s4.4-1.55,6.21.95c3.8,5.09,6,11,8.54,16.91,2.25,5.35,4.92,10.44,7.51,15.62.86,1.81,2.07,6.47,4.31,7,3.36.78,3-4,2.76-5.87-2.16-12.68-7.68-24.76-8.8-37.7-.09-.6-.86-5.43-.17-5.78,1.21-.78,2.93,4.06,3.45,5.26a136.6,136.6,0,0,1,6.56,19.24c1.55,5.52,2.93,11.13,4.57,16.65.95,3,2,6,3.11,9,.95,2.68,1.9,7.33,4.4,9.15,3.54,2.5,16.22-3.45,17.51,1.9.95,3.8-10.87,6.9-13.37,8-3.28,1.55-6.56,3.19-9.84,4.74-2.5,1.12-6.13,1.64-7.94,3.8-1.9,2.33-2.24,5.52-2.24,8.37-.17,2.16,1.29,7.51.17,9.4m-8,41.67a25.16,25.16,0,0,1-1.55,4,52.66,52.66,0,0,1-2.85,7.25c-1,1.9-2.59,3.54-3.62,5.43s-1.12,3.88-2.24,5.69c-1.29,2.07-3.36,3.54-4.66,5.61a30.39,30.39,0,0,1-2.16,3.28,122.76,122.76,0,0,0-8.8,11.48c-.6,1-3.8,5.61-5.09,5.87-2.59.52.43-3.19.95-4,3.71-5.61,7-11.48,10.61-17.08,3.45-5.52,7-11,10.35-16.48,2.76-4.57,4.57-11,9.06-14.24a19.72,19.72,0,0,1,0,3.19m121.22-51.25c2.16,8.89,4.74,17.51,7.16,26.32,2.24,8.2,5.26,16.91,6.21,25.28a106.17,106.17,0,0,0,6,24.67c1.29,3.62,2.68,7.33,4.14,11,.78,2,1.64,4,2.59,5.87.69,1.47,2.5,4,2.59,5.52.09,1.29.52.78-.78,1.73s-3.54.6-5.09.78c-4,.43-7.85,2-11.73,2.93-7.51,1.9-16.39,3.36-24,2.07-3.19-.52-6.56-1-9.75-1.73-3.88-.86-4.74-2.5-5.52-6.38-1.73-8.45-3.28-16.82-4.74-25.28-1.73-10.09-3.62-20.19-4.92-30.28-1.38-10.27-2.33-20.53-4.4-30.71,8.54,1.38,16.48,3,25,.69a28.4,28.4,0,0,0,17.26-12.42m33.3,109.92c1.9,3.88-2.68,7.42-4.92,10.44a132.72,132.72,0,0,1-9.06,11.73c-1-4.05-1.9-8.71-4.66-12.08-3.45-4.31-7.51-2.5-11.82-4.57,4.49-2.16,10.18-1.38,14.93-3.28s9.4-3.45,13.8-5.87c.52,1.21,1.12,2.42,1.73,3.62m-16.65,91.45c-2.85.17-.95-5.87-.78-7.33.52-4.14,1-8.2,1.47-12.34,2.33,6.21,4.74,12.42,7.07,18.64-2.59.35-5.09.86-7.76,1m-4.66,29.77c.43.86,2.24,3.8.78,4.31-2,.78-2.16-4.05-.78-4.31m-3.37-67c-9.15,7.25-18.12,14.58-28,20.79-2.16,1.38-4.31,2-5.78-.78-1.12-2.16.09-4.57.78-6.64a45.06,45.06,0,0,1,8.63-14.32c7.07-8.71,15.53-16.13,26.32-19.5,1.73-.52,4.49-2.24,5.09.09.35,1.38-1.21,4.83-1.47,6.13-1.29,5.35-1,10.7-5.52,14.24m26.23,53.06c.17,6.21-16.65,1.21-18.81.09,2.24-.69,18.72-2.85,18.81-.09m6.21.09c1,.26,4.83.6,3.45,1.9s-7.07.69-8.63.86c1-3.45,1.81-3.71,5.18-2.76m-3.11-8.28c-.35,1.38-.52,3.45-1.73,4.4-1.55,1.21-4.83.43-6.56.43-2.93,0-5.87.17-8.8.43-1.12.09-5.69,1.47-6.73.52-.78-.69-.52-3.88.09-4.66,1.12-1.47,3.8-.95,5.52-1,6-.09,12.08-.09,18.2-.09M288,4845.87a5.74,5.74,0,0,1-1.38-3.19c-.43-2.07-1.38-3.88-2-5.87-1.29-4.4,2.85-4,5.87-2.42,7.85,4.23,6,18.81,4.05,25.71-2.85-2.07-3.88-3-4.83-6.39-.35-1.29-.78-2.5-1.21-3.8-.35-.86-.09-3.36-.52-4.05m.69-71.18c2.16-.26,4.23,6.56,3.54,8-1.29,3-6.21,5.69-8.71,7.59a56.54,56.54,0,0,1-5.09,3.88c-1.64,1-2.59.43-4.14.95-2.24.69-2.76,3.11-5,4.05-3.19,1.38-7.07,1.81-10.44,3.11a21.07,21.07,0,0,1-12,.86c-6.13-1-13.29-4.05-12.68-11.48.95-13.11,27-19.84,34.08-8.71,1.81,2.93,1.81,6.3,3,9.4,1.29,3.36,2.59,2.07,4.49-.43,2.59-3.28,4.92-6.64,7.42-10,.78-1.12,5.52-7.25,5.52-7.25M129.27,4902.21c-.09,2.24,0,4.49-.78,6.64s-2.33,3.88-3.28,6c-1.82,4.23-1.82,9.32-1.72,13.89.17,10.53,2.68,20.71,4,31.15-4.4,0-8.89,0-13.2-1.21-3.8-1.12-4.4-3.88-5.52-7.42-3-9.84-6.3-19.58-7.25-29.94-.43-4.92-.69-9.84-.86-14.75-.17-4.31.78-6.21,4.66-8.37,8.45-4.66,17.26-8.54,25.62-13.37-.78,5.78-1.29,11.56-1.64,17.43m361.5-344.85c-2.07-.35-4.14-.6-6.21-.86-1.12-.17-4.49.09-5.26-.69-.95-.86.69-7.25.78-8.54a159.56,159.56,0,0,0-.86-24.85c-1.38-14.84-6-28.56-16.74-39.26-5.35-5.35-11.39-9.49-18.64-11.56-4.23-1.21-8.63-1.81-12.94-2.93a59,59,0,0,0-10.27-2.33c-7.16-.78-13.63-3.45-20.62-5-5.09-1.12-13.37-3.88-16.65,1.9a42.52,42.52,0,0,0-8.54-7.68c-3.19-2.16-3.71-4.4-7.51-1.81-7.51,4.91-14.58,10.86-21.57,16.47-6.56,5.26-12.86,10.7-19.76,15.53s-5.69,13.2-2.42,20.1c6.21,12.94,15.79,24.07,24.16,35.2,5.26,7,10.53,14,15.7,20.88,5,6.64,9.32,14.41,15.1,20.36,3.71,3.8,51.77-24.93,52.46-23-2,.17-4.66-.26-5.69,1.81-1.47,3,2.07,3.45,2.76,5.18.52,1.55-1.73,5.69-2.42,7.07a37,37,0,0,1-6,8.54c-9.23,10.35-20.88,17.77-32.79,24.85-12.68,7.59-26.32,12.16-40.21,17-7.08,2.5-14.41,3.62-21.66,5.18-7,1.55-14.06,3.54-21.22,4.14-14.67,1.21-30.28,2.07-44.78-1.12-1.55-.35-3.28-1.12-4.92-1.21-1.29-.09-2.24.43-3.45.52-2.59.17-4.14-2.16-6.21,0-1,1.12-1,2.93-2.5.86-1.81-2.59,2.85-3.11,4.66-3.8,5.87-2.5,10.61-7.51,14.41-12.51s4.31-10.44,2-16.39-7.42-9.92-11.39-14.75c-1.9-2.33-3.62-4.74-5.69-7-1.12-1.12-2.85-2.24-2.93-3.45-.09-1.38.69-2.07.26-3.71-.09-.43-.69-.69-.78-1.12a18,18,0,0,1,0-2.16,9.39,9.39,0,0,0-1.81-4.14,17.55,17.55,0,0,0-2.24-3.19c-1.38-1.12-3.28-.69-4.74-1.81-2.24-1.81-3-5.61-5-7.85-2.85-3.11-3.37,0-6.38-.95-2.5-.86-2.5-4.66-4.57-6-2.93-1.81-5.35,1.55-7.94,2.24-3.37.95-2.07-2.85-5.09-3.19-2.76-.35-6.47,5.18-7.85,7.16-1.38-1.64-2.93-4.4-5.35-3.36-2.59,1-3.11,5.87-5,7.59-.69.6-.52,1-1.38,1.29-1,.35-2.5-1.21-3.8-.69-2.76.95-2.42,4.66-2.42,7-3.28-.52-5.52-.69-6.64,2.76s-1.47,1.9-4.92,3c-2.93.95-3.36,3.8-3.88,6.56a7.66,7.66,0,0,0,.43,4c.6,2,.6,1.9-.35,3.8-1.64,3.28-1.73,6.9-2,10.44-.26,3.8-.95,7.33.17,11,.69,2.33.69,5.43,3,6.82.86.52,2.42.26,3.19.78,1.47.95,1,2.42,2,3.88.69,1,1.9,1.21,2.76,2.07s.95,2.07,1.47,3.19c1.47,3.37,2.93,5-2,5.26-3,.09-6.21,1-9.23.78-3.54-.35-4.4-2.33-5.52-5.35-5.69-15.18-8.71-31.66-16.22-46.16-1.64-3.19-8.37-16.13-11.22-6.73-2.42,7.94.78,17.69,2,25.62-3.8-3.45-5.18-9.58-8.11-13.8-2.16-3.11-8.8-10.7-12.68-6.3-3.11,3.45-2.33,10.7-1.73,14.75.86,6.47,2.93,12.68,4.49,19.07-1.9-2.42-2.76-5.43-4.06-8.11a53.6,53.6,0,0,0-6-9.75,49.15,49.15,0,0,0-6.73-7.33c-1.9-1.73-5.18-5.52-7.85-5.69-6.82-.52-4.66,12-3.62,15.53,2.16,7.42,4.49,14.58,6.13,22.17,3.28,14.75,7.25,29.16,9.66,44.17.52,3.28,1.21,6-.17,9.15-1.12,2.85-2.33,6.13-4.49,8.28a89.06,89.06,0,0,0-12.42,16,186.63,186.63,0,0,0-11,19.41c-1.47,3.11-2.67,6.38-4.31,9.4-1.47,2.67-3.28,4.83-4.4,7.77-5.09,14.15-8.89,28-10.61,43.05-1.38,12.34-.09,28.64,14.75,31.58,6.82,1.29,12.94-1.73,19.07-4.23,6.38-2.59,11-6.82,16.13-11.22,6.47-5.52,13.11-10.79,19.67-16.22s12.51-11.48,19.07-17a171.08,171.08,0,0,0,17.77-17.6c5.52-6.3,9.92-13.2,15.27-19.58,0,8.2-1.21,16.39-1.55,24.59-.35,7.51-.35,15.1,0,22.6s-1.73,14.67-1.73,22.26c0,7.33-.35,14.67-.43,21.91-.09,3.28-.69,7,.52,10.18.95,2.33,3.8,3.11,6.3,3.71,3.8.95,15.27-.95,16.91,3.11.95,2.24,0,6.21.09,8.71.09,4.05.26,8,.43,12.08s.26,8.37.43,12.51c.17,3.71.86,7.77.43,11.39-.35,3.11-2.16,2.67-5.09,2.85-4.31.26-8.71.43-13,.6-6.39.26-13,.17-19.15.86-2.59.35-5.35.17-8.11.69a77.08,77.08,0,0,1-10,.95c-2.76.17-6.39-.09-8.54,2a9.58,9.58,0,0,0-1.47,2.33c-1,1.47-.43,1.12-2.07,1.47a131.51,131.51,0,0,0-18.81,5c-3.19,1.12-6,2.59-9.23,3.62-2.76.86-4.83,2-6.21,4.74-2.42,4.83-1.81,11.91-1.64,17.17.26,8.2,2.07,16,4.06,23.9,2.07,8.2,3.62,16.65,7.59,24.24,1.29,2.5,2.67,5.69,5.35,7,3.45,1.64,8.71.69,12.51.69,2.5,0,9.23.86,11.13-1.21s0-7.85-.26-10.35c-.86-8.89-2.5-17.86-2.5-26.83,2.07,3,5.61,8.28,9.14,3.62.86-1.12.52-1.64,2.07-2.33a10.25,10.25,0,0,1,3.62-.52c1.29.09,1.73.6,2.93.35,1-.26,2.24-1.12,3.36-1.47,14.75-3.54,29.42-7.25,44.26-10.44,3.88-.86,3.37,2.16,3.62,5.61.26,3.71-.26,7.51.26,11.22a29.74,29.74,0,0,1,.17,9.58c-.78,3.8-.26,7,.52,10.79,2.85,14.58,2.33,30.46,3,45.3.35,7.77-.35,15.62.35,23.29.26,2.93,1.9,4.49,2.59,7.16.78,3-1.29,6.9-1.9,9.84-1.29,5.87-3.45,14.32.6,19.5,2.16,2.76,5,3.19,8.28,4.14,3.88,1.12,7.68,2.42,11.56,3.45,14.15,3.88,29.51,4.66,44.09,6.82a52.82,52.82,0,0,0,10.44.26c2.24-.17,7.68.6,9.49-.78.95-.69.52-1.55.95-2.42a7.06,7.06,0,0,1,2.76-2.5c2-1.29,4.31-2,4.66-4.66.86-6.39-7.16-9.75-11.48-12.6-5.43-3.54-12.08-4.92-17.86-7.77-3.19-1.55-6.3-3.36-9.4-5.18-1.29-.78-4.05-1.64-5-2.93s0-3,.35-4.83c1.64-7.42,1-15,1.9-22.52s.6-15.1.86-22.69c.26-7.77.95-15.53,1.38-23.29.43-7.16.95-14.49.95-21.65.09-6.64.95-13.2,1.21-19.93.09-2.24-.35-6.39,1.21-8.37,1.29-1.73,5.69-1.47,7.76-1.81,5.52-.78,10.79-1.47,16.22-2,13-1.12,27.44-2,39.69-6.56,5.09-1.9,11.82-4.4,13.46-10.27,1.9-6.64-.6-14.93-.69-21.74-.09-7.33-2.24-14.41-3.8-21.48-1.73-7.59-2.76-15.36-4.66-23-1.73-7-4.4-13.11-7.08-19.76-1-2.67-7.08-11.91-5.18-14.15,1-1.21,4.57-1.55,6-2.07a59.92,59.92,0,0,0,9.23-4.31c3.88-2.33,12.42-6.13,12.77-11.22.35-4.92-4.4-9.84-6.9-13.63-4-6.21-8.89-11.56-12.6-17.86-7.59-12.77-13.55-26.66-19.07-40.38-2.85-7.16-3.8-14-4.31-21.57,8.37,0,16.91,1,25.19-.09,9.06-1.29,18.12-3.45,27.09-5.18,16.31-3.19,32-6.9,47.19-14.15,14.15-6.82,28.56-14.24,40.29-25,6-5.61,12.25-11.22,17.51-17.6,5.35-6.56,9.4-14,13.63-21.31a143,143,0,0,0,11.13-25.54c.6-1.81.6-4.05,1.29-5.78.86-1.9,2.33-2,4-2.93,2.24-1.21,3.71-6-.17-6.64"/><path id="ink-shape-2" d="M225.38,4603.86c2,7.42,20.19,10.61,17.69.6-1.21-5-6.3-.52-9.92-1.12-2.33-.43-9.23-4.74-7.76.52"/><path id="ink-shape-3" d="M220.81,4590.57c.86-4-7.85-8.37-11-7.25-4.66,1.64-4.57,11.82-1,14.58.43.35,1.9,1.21,2.59.52,1.12-1-.09-.78-.35-1.9-.43-1.73-1.73-3.88-.43-5.87,2.5-3.62,9.06,5.61,10.27-.09"/><path id="ink-shape-4" d="M194.23,4609.89c-3.11-.17-5.69,4.66-1.12,4.31.86-.09,2.76-.26,3.28-1.21.95-1.55-.78-3-2.16-3.11"/><path id="Path_40" data-name="Path 40" class="cls-6" d="M383.06,4457.48l7.9,30.16s-15.12,18.9-23,22.68,0,11.68,0,11.68l25.08-6.18s7.42-1,4.06,2.75-18.49,12-18.49,12-1.72,4.47,4.47,4.81,24.74-10,24.74-10,4.45-1.72,3.08,2.75-7.9,7.22-7.9,7.22-1.72,3.78,2.4,4.12,18.56-4.12,18.56-4.12,8.93,7.22,5.15,13.75-9.28,17.53-9.28,17.53L364.5,4592.1l-53.26-81.78,11.34-46.39,41.92-17.18Z"/></g></g></g></g></g></g></svg>